<?xml version="1.0" encoding="UTF-8"?><svg id="Layer_2" xmlns="http://www.w3.org/2000/svg" width="72" height="59.065" viewBox="0 0 72 59.065"><defs><style>.cls-1{fill:#231f20;stroke:#231f20;stroke-miterlimit:10;}.cls-2{fill:#af9778;stroke-width:0px;}</style></defs><rect class="cls-1" x="22.5" y=".5" width="6" height="2"/><rect class="cls-1" x="44.5" y=".5" width="6" height="2"/><rect class="cls-1" x="11.5" y="12.5" width="6" height="2"/><rect class="cls-1" x="33.5" y="12.5" width="6" height="2"/><rect class="cls-1" x="55.5" y="12.5" width="6" height="2"/><rect class="cls-1" x=".5" y="23.5" width="6" height="2"/><rect class="cls-1" x="22.5" y="23.5" width="6" height="2"/><rect class="cls-1" x="44.5" y="23.5" width="6" height="2"/><rect class="cls-1" x="65.5" y="23.5" width="6" height="2"/><rect class="cls-1" x="12" y="34.5" width="5" height="2"/><rect class="cls-1" x="34" y="34.5" width="5" height="2"/><rect class="cls-1" x="56.057" y="34.5" width="5" height="2"/><path class="cls-2" d="m2.577,59h-1.577v-11h3.417c1.024,0,1.872.335,2.545,1.007.692.677,1.038,1.621,1.038,2.833,0,1.242-.378,2.223-1.134,2.944-.761.711-1.672,1.067-2.732,1.067h-1.556v3.149Zm1.638-9.433h-1.398v4.716h1.138c.658,0,1.19-.218,1.598-.654.407-.437.611-1.028.611-1.774,0-.74-.173-1.307-.518-1.7s-.822-.589-1.431-.589Z"/><path class="cls-2" d="m19,57.359v1.641h-7v-11h1.82v9.359h5.18Z"/><path class="cls-2" d="m27.062,57.397c1.135,0,2.075-.435,2.82-1.307l1.117,1.164c-1.077,1.164-2.394,1.746-3.952,1.746-1.417,0-2.612-.52-3.583-1.56-.977-1.044-1.465-2.359-1.465-3.944,0-1.561.488-2.865,1.465-3.909.977-1.059,2.214-1.588,3.713-1.588,1.44,0,2.639.52,3.597,1.559l-1.117,1.143c-.709-.733-1.535-1.1-2.48-1.1-1.036,0-1.896.377-2.582,1.128-.681.747-1.022,1.665-1.022,2.752s.336,2.021,1.008,2.788c.686.752,1.512,1.128,2.48,1.128Z"/><path class="cls-2" d="m37.266,59h-1.766v-11h1.766v5.092h6.468v-5.092h1.766v11h-1.766v-4.268h-6.468v4.268Z"/><path class="cls-2" d="m51.672,54.469c0,.931.223,1.659.67,2.186.447.525,1.139.788,2.077.788,1.001,0,1.735-.293,2.202-.879.472-.605.708-1.34.708-2.203v-6.295h1.672v6.478c0,1.318-.405,2.399-1.215,3.243-.805.853-1.927,1.279-3.366,1.279s-2.53-.4-3.292-1.2c-.751-.809-1.127-1.854-1.127-3.133v-6.667h1.672v6.405Z"/><path class="cls-2" d="m68.343,59h-1.685v-9.36h-3.657v-1.64h9v1.64h-3.657v9.36Z"/></svg>